<svg  width="547" height="980" viewBox="0 0 587 980" fill="none" xmlns="http://www.w3.org/2000/svg">
<g filter="url(#filter0_d_229_441)">
<path d="M148.702 979.94C235.27 793.7 255.086 599.252 261.8 162.721L293.456 162.81C298.489 585.583 311.831 789.545 398.558 980.644L148.702 979.94Z" fill="url(#paint0_linear_229_441)"/>
<path d="M241.651 979.202C274.395 700.492 271.2 509.293 262.073 162.722L293.788 162.811C279.808 520.406 274.842 713.377 309.612 979.394L241.651 979.202Z" fill="url(#paint1_linear_229_441)"/>
<path fill-rule="evenodd" clip-rule="evenodd" d="M220.377 430.311L221.176 146.474L222.176 146.477L221.377 430.314L220.377 430.311Z" fill="url(#paint2_linear_229_441)"/>
<path fill-rule="evenodd" clip-rule="evenodd" d="M247.119 279.614L247.561 122.704L248.561 122.707L248.119 279.617L247.119 279.614Z" fill="url(#paint3_linear_229_441)"/>
<path fill-rule="evenodd" clip-rule="evenodd" d="M318.19 239.837L318.503 128.9L319.503 128.903L319.19 239.84L318.19 239.837Z" fill="url(#paint4_linear_229_441)"/>
<path fill-rule="evenodd" clip-rule="evenodd" d="M335.312 346.361L335.312 156.469L336.312 156.469L336.312 346.361L335.312 346.361Z" fill="url(#paint5_linear_229_441)"/>
<path fill-rule="evenodd" clip-rule="evenodd" d="M307.275 205.463C299.954 206.906 289.889 207.776 278.804 207.744C267.719 207.713 257.659 206.787 250.346 205.303C246.698 204.563 243.682 203.674 241.555 202.66C240.494 202.155 239.6 201.594 238.959 200.963C238.316 200.331 237.85 199.549 237.852 198.634C237.855 197.718 238.325 196.939 238.972 196.31C239.617 195.683 240.514 195.127 241.578 194.628C243.711 193.627 246.732 192.754 250.384 192.035C257.704 190.592 267.77 189.722 278.855 189.754C289.939 189.785 300 190.711 307.312 192.195C310.96 192.935 313.976 193.825 316.103 194.838C317.165 195.343 318.058 195.904 318.7 196.535C319.343 197.167 319.809 197.949 319.806 198.864C319.804 199.78 319.333 200.559 318.687 201.188C318.041 201.815 317.145 202.371 316.081 202.87C313.948 203.871 310.927 204.744 307.275 205.463ZM278.807 206.744C300.885 206.807 318.794 203.277 318.806 198.862C318.819 194.446 300.93 190.816 278.852 190.754C256.773 190.691 238.865 194.221 238.852 198.636C238.84 203.052 256.728 206.682 278.807 206.744Z" fill="url(#paint6_linear_229_441)"/>
<path fill-rule="evenodd" clip-rule="evenodd" d="M320.629 232.313C309.869 234.47 295.054 235.774 278.725 235.728C262.396 235.682 247.588 234.295 236.84 232.078C231.474 230.97 227.068 229.646 223.98 228.15C222.438 227.404 221.172 226.59 220.279 225.697C219.384 224.802 218.792 223.752 218.795 222.566C218.798 221.381 219.396 220.334 220.297 219.444C221.195 218.557 222.465 217.749 224.011 217.011C227.108 215.533 231.521 214.234 236.893 213.157C247.653 211 262.469 209.696 278.798 209.742C295.127 209.788 309.935 211.175 320.683 213.393C326.048 214.5 330.455 215.824 333.543 217.32C335.084 218.067 336.35 218.881 337.243 219.774C338.139 220.669 338.731 221.719 338.727 222.904C338.724 224.089 338.126 225.136 337.226 226.026C336.328 226.914 335.057 227.721 333.511 228.459C330.415 229.937 326.001 231.237 320.629 232.313ZM278.728 234.728C311.294 234.82 337.709 229.525 337.727 222.901C337.746 216.278 311.361 210.834 278.795 210.742C246.229 210.65 219.814 215.945 219.795 222.569C219.776 229.193 246.161 234.637 278.728 234.728Z" fill="url(#paint7_linear_229_441)"/>
<path fill-rule="evenodd" clip-rule="evenodd" d="M339.857 275.586C323.759 278.813 301.571 280.768 277.1 280.699C252.629 280.63 230.453 278.551 214.372 275.233C206.341 273.576 199.777 271.599 195.199 269.382C192.913 268.274 191.069 267.082 189.784 265.798C188.497 264.511 187.7 263.057 187.704 261.457C187.709 259.858 188.514 258.408 189.808 257.128C191.1 255.851 192.951 254.669 195.244 253.575C199.834 251.383 206.409 249.444 214.45 247.832C230.548 244.605 252.736 242.651 277.207 242.719C301.678 242.788 323.854 244.867 339.934 248.185C347.966 249.842 354.53 251.819 359.108 254.036C361.394 255.144 363.238 256.336 364.523 257.62C365.81 258.907 366.607 260.362 366.603 261.961C366.598 263.56 365.793 265.011 364.498 266.29C363.207 267.567 361.356 268.749 359.063 269.843C354.473 272.035 347.898 273.974 339.857 275.586ZM277.103 279.699C325.952 279.836 365.575 271.894 365.603 261.958C365.631 252.023 326.053 243.857 277.204 243.719C228.355 243.582 188.732 251.525 188.704 261.46C188.676 271.395 228.254 279.561 277.103 279.699Z" fill="url(#paint8_linear_229_441)"/>
<path fill-rule="evenodd" clip-rule="evenodd" d="M372.236 364.698C347.27 369.708 312.836 372.747 274.842 372.64C236.848 372.533 202.431 369.301 177.494 364.149C165.033 361.575 154.887 358.512 147.834 355.092C144.31 353.383 141.506 351.56 139.571 349.623C137.633 347.684 136.496 345.555 136.502 343.266C136.508 340.977 137.658 338.854 139.606 336.926C141.553 335 144.367 333.193 147.901 331.504C154.972 328.124 165.136 325.118 177.611 322.614C202.577 317.603 237.011 314.565 275.005 314.672C312.999 314.779 347.415 318.011 372.353 323.163C384.813 325.736 394.959 328.8 402.012 332.22C405.536 333.929 408.34 335.752 410.276 337.688C412.213 339.628 413.351 341.757 413.344 344.046C413.338 346.335 412.188 348.457 410.24 350.386C408.294 352.311 405.479 354.118 401.946 355.807C394.874 359.187 384.71 362.194 372.236 364.698ZM274.844 371.64C350.74 371.854 412.301 359.498 412.344 344.043C412.388 328.588 350.898 315.886 275.002 315.672C199.106 315.458 137.546 327.814 137.502 343.269C137.458 358.724 198.949 371.426 274.844 371.64Z" fill="url(#paint9_linear_229_441)"/>
<path fill-rule="evenodd" clip-rule="evenodd" d="M470.163 533.823C420.766 543.739 352.593 549.759 277.341 549.547C202.089 549.335 133.951 542.931 84.6111 532.738C59.9495 527.643 39.932 521.59 26.0612 514.863C19.128 511.5 13.6778 507.944 9.95037 504.213C6.22047 500.48 4.14444 496.495 4.15623 492.309C4.16802 488.123 6.26645 484.15 10.0173 480.438C13.7657 476.728 19.2359 473.203 26.1878 469.879C40.0963 463.23 60.1476 457.29 84.8375 452.334C134.234 442.418 202.407 436.399 277.659 436.611C352.911 436.822 421.049 443.226 470.389 453.42C495.051 458.515 515.068 464.568 528.939 471.295C535.872 474.657 541.322 478.214 545.05 481.945C548.78 485.678 550.856 489.662 550.844 493.848C550.832 498.035 548.734 502.007 544.983 505.72C541.234 509.429 535.764 512.955 528.812 516.278C514.904 522.927 494.852 528.867 470.163 533.823ZM277.344 548.547C427.755 548.97 549.758 524.48 549.844 493.846C549.93 463.211 428.068 438.034 277.656 437.611C127.245 437.187 5.24249 461.678 5.15623 492.312C5.06996 522.946 126.932 548.123 277.344 548.547Z" fill="url(#paint10_linear_229_441)"/>
<path fill-rule="evenodd" clip-rule="evenodd" d="M292.207 173.761C288.515 174.397 283.456 174.776 277.897 174.761C272.338 174.745 267.282 174.337 263.594 173.681C261.758 173.354 260.213 172.958 259.103 172.495C258.553 172.266 258.053 171.997 257.673 171.671C257.302 171.351 256.92 170.861 256.921 170.204C256.923 169.546 257.308 169.059 257.682 168.741C258.063 168.417 258.565 168.151 259.116 167.924C260.228 167.468 261.776 167.08 263.613 166.764C267.305 166.129 272.363 165.749 277.923 165.765C283.482 165.78 288.538 166.188 292.226 166.845C294.062 167.171 295.607 167.567 296.716 168.03C297.267 168.26 297.767 168.529 298.146 168.855C298.518 169.175 298.9 169.664 298.898 170.322C298.897 170.98 298.512 171.467 298.138 171.785C297.757 172.109 297.255 172.375 296.704 172.601C295.592 173.058 294.044 173.445 292.207 173.761ZM277.9 173.761C288.939 173.792 297.893 172.251 297.898 170.319C297.904 168.387 288.959 166.796 277.92 166.765C266.88 166.734 257.927 168.275 257.921 170.206C257.916 172.138 266.861 173.73 277.9 173.761Z" fill="url(#paint11_linear_229_441)"/>
<path fill-rule="evenodd" clip-rule="evenodd" d="M293.619 176.616C289.563 177.342 284.002 177.776 277.89 177.759C271.777 177.742 266.219 177.276 262.167 176.527C260.149 176.155 258.455 175.703 257.242 175.178C256.64 174.917 256.099 174.614 255.694 174.252C255.293 173.893 254.914 173.373 254.916 172.696C254.918 172.02 255.3 171.501 255.703 171.145C256.11 170.786 256.652 170.486 257.256 170.228C258.472 169.71 260.168 169.267 262.188 168.906C266.244 168.18 271.805 167.746 277.918 167.763C284.03 167.781 289.589 168.246 293.641 168.995C295.658 169.367 297.352 169.819 298.565 170.344C299.167 170.605 299.708 170.908 300.113 171.27C300.514 171.629 300.893 172.149 300.891 172.826C300.889 173.502 300.507 174.021 300.104 174.377C299.697 174.737 299.155 175.036 298.551 175.294C297.336 175.812 295.639 176.255 293.619 176.616ZM277.892 176.759C290.036 176.793 299.885 175.031 299.891 172.823C299.897 170.615 290.058 168.798 277.915 168.763C265.772 168.729 255.922 170.491 255.916 172.699C255.91 174.907 265.749 176.725 277.892 176.759Z" fill="url(#paint12_linear_229_441)"/>
<path fill-rule="evenodd" clip-rule="evenodd" d="M295.725 180.473C291.127 181.288 284.817 181.776 277.877 181.756C270.937 181.737 264.63 181.213 260.036 180.373C257.747 179.954 255.835 179.448 254.471 178.864C253.793 178.573 253.194 178.239 252.749 177.845C252.309 177.456 251.905 176.901 251.907 176.186C251.909 175.47 252.316 174.918 252.759 174.531C253.206 174.139 253.807 173.809 254.486 173.522C255.853 172.945 257.769 172.45 260.059 172.044C264.658 171.23 270.968 170.742 277.908 170.761C284.848 170.781 291.155 171.304 295.749 172.145C298.037 172.563 299.95 173.069 301.314 173.654C301.991 173.945 302.59 174.278 303.036 174.672C303.476 175.062 303.88 175.617 303.878 176.332C303.876 177.047 303.469 177.6 303.026 177.987C302.579 178.378 301.978 178.709 301.299 178.995C299.932 179.572 298.016 180.068 295.725 180.473ZM277.88 180.756C291.679 180.795 302.871 178.813 302.878 176.329C302.885 173.845 291.704 171.8 277.905 171.761C264.106 171.722 252.914 173.704 252.907 176.188C252.9 178.672 264.081 180.717 277.88 180.756Z" fill="url(#paint13_linear_229_441)"/>
<path fill-rule="evenodd" clip-rule="evenodd" d="M299.224 188.335C293.727 189.235 286.172 189.775 277.855 189.752C269.538 189.729 261.986 189.146 256.493 188.215C253.755 187.75 251.481 187.192 249.87 186.552C249.069 186.233 248.374 185.873 247.861 185.453C247.361 185.043 246.886 184.449 246.889 183.668C246.891 182.886 247.369 182.295 247.871 181.888C248.386 181.471 249.084 181.114 249.886 180.801C251.501 180.169 253.778 179.624 256.519 179.175C262.016 178.274 269.571 177.734 277.888 177.758C286.205 177.781 293.757 178.364 299.25 179.295C301.988 179.759 304.261 180.318 305.873 180.958C306.673 181.276 307.369 181.637 307.882 182.057C308.382 182.467 308.856 183.06 308.854 183.842C308.852 184.624 308.374 185.215 307.872 185.622C307.357 186.039 306.659 186.396 305.857 186.709C304.242 187.34 301.965 187.886 299.224 188.335ZM277.857 188.752C294.416 188.799 307.847 186.599 307.854 183.839C307.862 181.079 294.445 178.804 277.886 178.758C261.327 178.711 247.896 180.911 247.889 183.67C247.881 186.43 261.298 188.705 277.857 188.752Z" fill="url(#paint14_linear_229_441)"/>
<path d="M259.47 163.61L255.394 155.797C254.997 155.037 254.799 154.657 254.838 154.347C254.873 154.065 255.027 153.811 255.261 153.649C255.518 153.471 255.946 153.471 256.803 153.471H299.53C300.387 153.471 300.816 153.471 301.072 153.649C301.306 153.811 301.46 154.065 301.496 154.347C301.534 154.657 301.336 155.037 300.94 155.797L296.863 163.61C296.703 163.918 296.623 164.071 296.506 164.184C296.398 164.288 296.269 164.366 296.127 164.414C295.973 164.465 295.8 164.465 295.453 164.465H260.88C260.534 164.465 260.36 164.465 260.206 164.414C260.065 164.366 259.935 164.288 259.827 164.184C259.711 164.071 259.631 163.918 259.47 163.61Z" fill="#EDEFF0"/>
<path d="M226.126 168.463C223.128 165.893 226.126 131.484 254.11 112.994H257.109V155.47H249.613C244.116 155.47 229.124 171.032 226.126 168.463Z" fill="url(#paint15_linear_229_441)"/>
<path d="M330.067 168.463C333.065 165.893 330.067 131.484 302.083 112.994H299.085V155.47H306.581C312.077 155.47 327.069 171.032 330.067 168.463Z" fill="url(#paint16_linear_229_441)"/>
<path d="M255.11 47.5314L255.11 155.47H301.084V47.5314C301.084 35.5382 286.592 0.558167 278.097 0.558167C269.102 0.558167 255.11 35.5382 255.11 47.5314Z" fill="url(#paint17_linear_229_441)"/>
<path fill-rule="evenodd" clip-rule="evenodd" d="M277.969 35.1036C273.944 35.0971 269.837 36.0284 264.445 37.9807C263.926 38.1687 263.353 37.9002 263.165 37.3809C262.977 36.8616 263.245 36.2882 263.764 36.1001C269.262 34.1093 273.618 33.0965 277.973 33.1036C282.328 33.1107 286.602 34.1381 291.935 36.102C292.453 36.2929 292.719 36.8677 292.528 37.386C292.337 37.9042 291.762 38.1697 291.244 37.9788C286.018 36.0543 281.994 35.1102 277.969 35.1036Z" fill="url(#paint18_linear_229_441)"/>
<path d="M271.601 168.463C271.601 173.46 274.599 176.958 278.097 176.958C281.095 176.958 284.186 173.959 284.094 168.463C283.639 141.451 281.095 112.494 278.097 112.494C275.099 112.494 273.412 130.844 271.601 168.463Z" fill="url(#paint19_linear_229_441)"/>
</g>
<defs>
<filter id="filter0_d_229_441" x="0.156189" y="0.558167" width="554.688" height="988.086" filterUnits="userSpaceOnUse" color-interpolation-filters="sRGB">
<feFlood flood-opacity="0" result="BackgroundImageFix"/>
<feColorMatrix in="SourceAlpha" type="matrix" values="0 0 0 0 0 0 0 0 0 0 0 0 0 0 0 0 0 0 127 0" result="hardAlpha"/>
<feOffset dy="4"/>
<feGaussianBlur stdDeviation="2"/>
<feComposite in2="hardAlpha" operator="out"/>
<feColorMatrix type="matrix" values="0 0 0 0 0 0 0 0 0 0 0 0 0 0 0 0 0 0 0.25 0"/>
<feBlend mode="normal" in2="BackgroundImageFix" result="effect1_dropShadow_229_441"/>
<feBlend mode="normal" in="SourceGraphic" in2="effect1_dropShadow_229_441" result="shape"/>
</filter>
<linearGradient id="paint0_linear_229_441" x1="275.932" y1="162.761" x2="274.679" y2="902.668" gradientUnits="userSpaceOnUse">
<stop stop-color="#7D3220" stop-opacity="0.52"/>
<stop offset="1" stop-color="#FFC0B0" stop-opacity="0"/>
</linearGradient>
<linearGradient id="paint1_linear_229_441" x1="277.93" y1="162.766" x2="275.631" y2="979.298" gradientUnits="userSpaceOnUse">
<stop offset="0.119792" stop-color="#E48771" stop-opacity="0.31"/>
<stop offset="0.875" stop-color="#FF8C70" stop-opacity="0"/>
</linearGradient>
<linearGradient id="paint2_linear_229_441" x1="222.176" y1="146.477" x2="221.377" y2="430.314" gradientUnits="userSpaceOnUse">
<stop stop-color="#FAFAFA" stop-opacity="0"/>
<stop offset="0.494792" stop-color="#FAFAFA"/>
<stop offset="1" stop-color="#FAFAFA" stop-opacity="0"/>
</linearGradient>
<linearGradient id="paint3_linear_229_441" x1="248.561" y1="122.707" x2="248.119" y2="279.617" gradientUnits="userSpaceOnUse">
<stop stop-color="#FAFAFA" stop-opacity="0"/>
<stop offset="0.494792" stop-color="#FAFAFA"/>
<stop offset="1" stop-color="#FAFAFA" stop-opacity="0"/>
</linearGradient>
<linearGradient id="paint4_linear_229_441" x1="319.503" y1="128.903" x2="319.19" y2="239.84" gradientUnits="userSpaceOnUse">
<stop stop-color="#FAFAFA" stop-opacity="0"/>
<stop offset="0.494792" stop-color="#FAFAFA"/>
<stop offset="1" stop-color="#FAFAFA" stop-opacity="0"/>
</linearGradient>
<linearGradient id="paint5_linear_229_441" x1="336.312" y1="156.469" x2="336.312" y2="346.361" gradientUnits="userSpaceOnUse">
<stop stop-color="#FAFAFA" stop-opacity="0"/>
<stop offset="0.494792" stop-color="#FAFAFA"/>
<stop offset="1" stop-color="#FAFAFA" stop-opacity="0"/>
</linearGradient>
<linearGradient id="paint6_linear_229_441" x1="278.367" y1="206.743" x2="278.412" y2="190.752" gradientUnits="userSpaceOnUse">
<stop stop-color="#CE8573"/>
<stop offset="1" stop-color="#F9AD9B"/>
</linearGradient>
<linearGradient id="paint7_linear_229_441" x1="278.08" y1="234.726" x2="278.147" y2="210.74" gradientUnits="userSpaceOnUse">
<stop stop-color="#CE8573"/>
<stop offset="1" stop-color="#F9AD9B"/>
</linearGradient>
<linearGradient id="paint8_linear_229_441" x1="276.131" y1="279.696" x2="276.232" y2="243.717" gradientUnits="userSpaceOnUse">
<stop stop-color="#CE8573"/>
<stop offset="1" stop-color="#F9AD9B"/>
</linearGradient>
<linearGradient id="paint9_linear_229_441" x1="273.334" y1="371.636" x2="273.492" y2="315.668" gradientUnits="userSpaceOnUse">
<stop stop-color="#CE8573"/>
<stop offset="1" stop-color="#F9AD9B"/>
</linearGradient>
<linearGradient id="paint10_linear_229_441" x1="274.351" y1="548.538" x2="274.663" y2="437.602" gradientUnits="userSpaceOnUse">
<stop stop-color="#CE8573"/>
<stop offset="1" stop-color="#F9AD9B"/>
</linearGradient>
<linearGradient id="paint11_linear_229_441" x1="277.68" y1="173.76" x2="277.7" y2="166.764" gradientUnits="userSpaceOnUse">
<stop stop-color="#CE8573"/>
<stop offset="1" stop-color="#F9AD9B"/>
</linearGradient>
<linearGradient id="paint12_linear_229_441" x1="277.651" y1="176.758" x2="277.673" y2="168.763" gradientUnits="userSpaceOnUse">
<stop stop-color="#CE8573"/>
<stop offset="1" stop-color="#F9AD9B"/>
</linearGradient>
<linearGradient id="paint13_linear_229_441" x1="277.605" y1="180.755" x2="277.631" y2="171.761" gradientUnits="userSpaceOnUse">
<stop stop-color="#CE8573"/>
<stop offset="1" stop-color="#F9AD9B"/>
</linearGradient>
<linearGradient id="paint14_linear_229_441" x1="277.528" y1="188.751" x2="277.556" y2="178.757" gradientUnits="userSpaceOnUse">
<stop stop-color="#CE8573"/>
<stop offset="1" stop-color="#F9AD9B"/>
</linearGradient>
<linearGradient id="paint15_linear_229_441" x1="257.109" y1="112.994" x2="209.034" y2="140.51" gradientUnits="userSpaceOnUse">
<stop stop-color="#E85937"/>
<stop offset="1" stop-color="#FF8C70"/>
</linearGradient>
<linearGradient id="paint16_linear_229_441" x1="299.085" y1="112.994" x2="347.159" y2="140.51" gradientUnits="userSpaceOnUse">
<stop stop-color="#E85937"/>
<stop offset="1" stop-color="#FF8C70"/>
</linearGradient>
<linearGradient id="paint17_linear_229_441" x1="278.097" y1="0.558167" x2="278.097" y2="155.47" gradientUnits="userSpaceOnUse">
<stop stop-color="#EDEFF0"/>
<stop offset="1" stop-color="white"/>
</linearGradient>
<linearGradient id="paint18_linear_229_441" x1="291.589" y1="34.1035" x2="290.969" y2="39.911" gradientUnits="userSpaceOnUse">
<stop stop-color="#E85937"/>
<stop offset="1" stop-color="#FF8C70"/>
</linearGradient>
<linearGradient id="paint19_linear_229_441" x1="284.096" y1="112.494" x2="260.011" y2="117.163" gradientUnits="userSpaceOnUse">
<stop stop-color="#E85937"/>
<stop offset="1" stop-color="#FF8C70"/>
</linearGradient>
</defs>
</svg>
